<svg width="30" height="30" viewBox="0 0 30 30" fill="none" xmlns="http://www.w3.org/2000/svg">
<path d="M11.7 9.525C12.54 9.525 13.215 8.85 13.215 8.01C13.215 7.17 12.54 6.495 11.7 6.495C10.86 6.495 10.185 7.17 10.185 8.01C10.185 8.85 10.86 9.525 11.7 9.525Z" fill="#000B28"/>
<path fill-rule="evenodd" clip-rule="evenodd" d="M14.745 12.825C14.745 11.205 13.38 10.035 11.7 10.035C10.02 10.035 8.655 11.205 8.655 12.825V13.59C8.655 13.725 8.715 13.86 8.805 13.95C8.895 14.04 9.03 14.1 9.165 14.1H14.235C14.37 14.1 14.505 14.04 14.595 13.95C14.685 13.86 14.745 13.725 14.745 13.59V12.825ZM8.625 17.25C8.625 16.9516 8.74353 16.6655 8.9545 16.4545C9.16548 16.2435 9.45163 16.125 9.75 16.125H20.25C20.5484 16.125 20.8345 16.2435 21.0455 16.4545C21.2565 16.6655 21.375 16.9516 21.375 17.25C21.375 17.5483 21.2565 17.8345 21.0455 18.0455C20.8345 18.2564 20.5484 18.375 20.25 18.375H9.75C9.45163 18.375 9.16548 18.2564 8.9545 18.0455C8.74353 17.8345 8.625 17.5483 8.625 17.25ZM8.625 21.75C8.625 21.4516 8.74353 21.1655 8.9545 20.9545C9.16548 20.7435 9.45163 20.625 9.75 20.625H20.25C20.5484 20.625 20.8345 20.7435 21.0455 20.9545C21.2565 21.1655 21.375 21.4516 21.375 21.75C21.375 22.0483 21.2565 22.3345 21.0455 22.5455C20.8345 22.7564 20.5484 22.875 20.25 22.875H9.75C9.45163 22.875 9.16548 22.7564 8.9545 22.5455C8.74353 22.3345 8.625 22.0483 8.625 21.75Z" fill="#000B28"/>
<path fill-rule="evenodd" clip-rule="evenodd" d="M3.75 3.75C3.75 2.097 5.097 0.75 6.75 0.75H16.785C17.628 0.75 18.423 1.107 18.9825 1.6965L18.9915 1.707L25.4595 8.76C25.998 9.3345 26.25 10.086 26.25 10.8V26.25C26.25 27.903 24.903 29.25 23.25 29.25H6.75C5.097 29.25 3.75 27.903 3.75 26.25V3.75ZM16.7835 3.75H6.75V26.25H23.25V10.788L16.806 3.7605L16.8015 3.759L16.7835 3.75Z" fill="#000B28"/>
<path fill-rule="evenodd" clip-rule="evenodd" d="M16.785 0.75C17.1828 0.75 17.5643 0.908035 17.8456 1.18934C18.1269 1.47064 18.285 1.85218 18.285 2.25V9.3H24.75C24.947 9.3 25.142 9.3388 25.324 9.41418C25.506 9.48956 25.6713 9.60005 25.8106 9.73934C25.9499 9.87863 26.0604 10.044 26.1358 10.226C26.2112 10.408 26.25 10.603 26.25 10.8C26.25 10.997 26.2112 11.192 26.1358 11.374C26.0604 11.556 25.9499 11.7214 25.8106 11.8607C25.6713 11.9999 25.506 12.1104 25.324 12.1858C25.142 12.2612 24.947 12.3 24.75 12.3H16.785C16.3871 12.3 16.0056 12.142 15.7243 11.8607C15.443 11.5794 15.285 11.1978 15.285 10.8V2.25C15.285 1.85218 15.443 1.47064 15.7243 1.18934C16.0056 0.908035 16.3871 0.75 16.785 0.75Z" fill="#000B28"/>
</svg>
