<svg width="33" height="26" viewBox="0 0 33 26" fill="none" xmlns="http://www.w3.org/2000/svg">
<path d="M0 3.25C0 2.38805 0.347677 1.5614 0.966547 0.951903C1.58542 0.34241 2.42479 0 3.3 0H29.7C30.5752 0 31.4146 0.34241 32.0335 0.951903C32.6523 1.5614 33 2.38805 33 3.25V22.75C33 23.612 32.6523 24.4386 32.0335 25.0481C31.4146 25.6576 30.5752 26 29.7 26H3.3C2.42479 26 1.58542 25.6576 0.966547 25.0481C0.347677 24.4386 0 23.612 0 22.75V3.25ZM5.80635 3.25L16.5 12.4654L27.1937 3.25H5.80635ZM29.7 5.40962L17.5874 15.8486C17.2865 16.1083 16.9 16.2514 16.5 16.2514C16.1 16.2514 15.7135 16.1083 15.4126 15.8486L3.3 5.40962V22.75H29.7V5.40962Z" fill="#000B28"/>
</svg>
